<svg width="25" height="25" viewBox="0 0 25 25" fill="none" xmlns="http://www.w3.org/2000/svg">
<path d="M20.3398 8.78148L12.8428 16.0895L5.34577 8.78148C5.21182 8.65064 5.03201 8.5774 4.84477 8.5774C4.65753 8.5774 4.47771 8.65064 4.34377 8.78148C4.27891 8.84502 4.22738 8.92087 4.19221 9.00458C4.15703 9.08829 4.13892 9.17818 4.13892 9.26898C4.13892 9.35978 4.15703 9.44966 4.19221 9.53337C4.22738 9.61708 4.27891 9.69293 4.34377 9.75648L12.3193 17.5325C12.4593 17.669 12.6472 17.7454 12.8428 17.7454C13.0384 17.7454 13.2262 17.669 13.3663 17.5325L21.3418 9.75798C21.4071 9.69438 21.459 9.61835 21.4945 9.53436C21.5299 9.45037 21.5482 9.36014 21.5482 9.26898C21.5482 9.17782 21.5299 9.08758 21.4945 9.00359C21.459 8.9196 21.4071 8.84357 21.3418 8.77998C21.2078 8.64914 21.028 8.5759 20.8408 8.5759C20.6535 8.5759 20.4737 8.64914 20.3398 8.77998V8.78148Z" fill="#B0B0BF"/>
</svg>
